<svg width="50" height="50" viewBox="0 0 50 50" fill="none" xmlns="http://www.w3.org/2000/svg">
<path fill-rule="evenodd" clip-rule="evenodd" d="M2 6C0.895431 6 0 6.89543 0 8C0 9.10457 0.89543 10 2 10H36C37.1046 10 38 9.10457 38 8C38 6.89543 37.1046 6 36 6H2ZM14 13C12.8954 13 12 13.8954 12 15C12 16.1046 12.8954 17 14 17H48C49.1046 17 50 16.1046 50 15C50 13.8954 49.1046 13 48 13H14ZM0 22C0 20.8954 0.895431 20 2 20H36C37.1046 20 38 20.8954 38 22C38 23.1046 37.1046 24 36 24H2C0.89543 24 0 23.1046 0 22ZM14 27C12.8954 27 12 27.8954 12 29C12 30.1046 12.8954 31 14 31H48C49.1046 31 50 30.1046 50 29C50 27.8954 49.1046 27 48 27H14ZM0 36C0 34.8954 0.895431 34 2 34H36C37.1046 34 38 34.8954 38 36C38 37.1046 37.1046 38 36 38H2C0.89543 38 0 37.1046 0 36ZM14 41C12.8954 41 12 41.8954 12 43C12 44.1046 12.8954 45 14 45H48C49.1046 45 50 44.1046 50 43C50 41.8954 49.1046 41 48 41H14Z" fill="#C4C4C4"/>
</svg>
