<svg width="58" height="50" viewBox="0 0 58 50" fill="none" xmlns="http://www.w3.org/2000/svg">
<g filter="url(#filter0_d)">
<path d="M26.6905 31V30.9899C26.5445 30.9966 26.3976 31 26.25 31C21.1414 31 17 26.9474 17 21.9483C17 17.007 21.046 12.9906 26.0729 12.8982C27.0604 8.93874 30.7093 6 35.0595 6C39.4185 6 43.0733 8.9505 44.052 12.9219C44.2824 12.9051 44.5152 12.8966 44.75 12.8966C49.8586 12.8966 54 16.9492 54 21.9483C54 26.8029 50.0946 30.7649 45.1905 30.9899V31H26.6905Z" fill="url(#paint0_linear)"/>
</g>
<g filter="url(#filter1_d)">
<path d="M16.0476 44V43.9871C15.8662 43.9957 15.6836 44 15.5 44C9.14874 44 4 38.8127 4 32.4138C4 26.089 9.03018 20.9479 15.2798 20.8297C16.5075 15.7616 21.0439 12 26.4524 12C31.8717 12 36.4154 15.7766 37.6322 20.8601C37.9187 20.8386 38.2081 20.8276 38.5 20.8276C44.8513 20.8276 50 26.0149 50 32.4138C50 38.6277 45.1446 43.6991 39.0476 43.9871V44H16.0476Z" fill="url(#paint1_linear)"/>
</g>
<defs>
<filter id="filter0_d" x="13" y="3" width="45" height="33" filterUnits="userSpaceOnUse" color-interpolation-filters="sRGB">
<feFlood flood-opacity="0" result="BackgroundImageFix"/>
<feColorMatrix in="SourceAlpha" type="matrix" values="0 0 0 0 0 0 0 0 0 0 0 0 0 0 0 0 0 0 127 0"/>
<feOffset dy="1"/>
<feGaussianBlur stdDeviation="2"/>
<feColorMatrix type="matrix" values="0 0 0 0 1 0 0 0 0 1 0 0 0 0 1 0 0 0 0.47 0"/>
<feBlend mode="normal" in2="BackgroundImageFix" result="effect1_dropShadow"/>
<feBlend mode="normal" in="SourceGraphic" in2="effect1_dropShadow" result="shape"/>
</filter>
<filter id="filter1_d" x="0" y="9" width="54" height="40" filterUnits="userSpaceOnUse" color-interpolation-filters="sRGB">
<feFlood flood-opacity="0" result="BackgroundImageFix"/>
<feColorMatrix in="SourceAlpha" type="matrix" values="0 0 0 0 0 0 0 0 0 0 0 0 0 0 0 0 0 0 127 0"/>
<feOffset dy="1"/>
<feGaussianBlur stdDeviation="2"/>
<feColorMatrix type="matrix" values="0 0 0 0 1 0 0 0 0 1 0 0 0 0 1 0 0 0 0.47 0"/>
<feBlend mode="normal" in2="BackgroundImageFix" result="effect1_dropShadow"/>
<feBlend mode="normal" in="SourceGraphic" in2="effect1_dropShadow" result="shape"/>
</filter>
<linearGradient id="paint0_linear" x1="35.5" y1="6" x2="35.5" y2="31" gradientUnits="userSpaceOnUse">
<stop stop-color="#BABABA" stop-opacity="0.98"/>
<stop offset="0.96875" stop-color="#828282" stop-opacity="0.82"/>
</linearGradient>
<linearGradient id="paint1_linear" x1="27" y1="12" x2="27" y2="44" gradientUnits="userSpaceOnUse">
<stop stop-color="#E9E9E9" stop-opacity="0.73"/>
<stop offset="0.96875" stop-color="#BABABA" stop-opacity="0.82"/>
</linearGradient>
</defs>
</svg>
