<svg width="54" height="50" viewBox="0 0 54 50" fill="none" xmlns="http://www.w3.org/2000/svg">
<path d="M6.72143 28.5331C16.633 28.5331 24.6679 20.6356 24.6679 10.8937C24.6679 8.05609 23.9862 5.37501 22.775 3C29.3565 5.61468 34 11.9546 34 19.3606C34 29.1026 25.9651 37 16.0536 37C9.02899 37 2.94705 33.0332 0 27.2542C2.07597 28.079 4.34475 28.5331 6.72143 28.5331Z" fill="url(#paint0_linear)"/>
<g filter="url(#filter0_d)">
<path d="M19 44V43.9883C18.8343 43.9961 18.6676 44 18.5 44C12.701 44 8 39.299 8 33.5C8 27.7682 12.5928 23.109 18.299 23.0019C19.4199 18.4089 23.5619 15 28.5 15C33.448 15 37.5967 18.4226 38.7077 23.0294C38.9692 23.0099 39.2335 23 39.5 23C45.299 23 50 27.701 50 33.5C50 39.1314 45.5668 43.7273 40 43.9883V44H19Z" fill="url(#paint1_linear)"/>
</g>
<defs>
<filter id="filter0_d" x="4" y="12" width="50" height="37" filterUnits="userSpaceOnUse" color-interpolation-filters="sRGB">
<feFlood flood-opacity="0" result="BackgroundImageFix"/>
<feColorMatrix in="SourceAlpha" type="matrix" values="0 0 0 0 0 0 0 0 0 0 0 0 0 0 0 0 0 0 127 0"/>
<feOffset dy="1"/>
<feGaussianBlur stdDeviation="2"/>
<feColorMatrix type="matrix" values="0 0 0 0 1 0 0 0 0 1 0 0 0 0 1 0 0 0 0.47 0"/>
<feBlend mode="normal" in2="BackgroundImageFix" result="effect1_dropShadow"/>
<feBlend mode="normal" in="SourceGraphic" in2="effect1_dropShadow" result="shape"/>
</filter>
<linearGradient id="paint0_linear" x1="16.0536" y1="1.72116" x2="16.0536" y2="37" gradientUnits="userSpaceOnUse">
<stop stop-color="#FFCF52"/>
<stop offset="1" stop-color="#FFA800"/>
</linearGradient>
<linearGradient id="paint1_linear" x1="29" y1="15" x2="29" y2="44" gradientUnits="userSpaceOnUse">
<stop stop-color="white" stop-opacity="0.98"/>
<stop offset="0.96875" stop-color="#D0D0D0" stop-opacity="0.82"/>
</linearGradient>
</defs>
</svg>
