<svg width="54" height="52" viewBox="0 0 54 52" fill="none" xmlns="http://www.w3.org/2000/svg">
<path d="M39 22.5C39 33.2696 30.2696 42 19.5 42C8.73045 42 0 33.2696 0 22.5C0 11.7304 8.73045 3 19.5 3C30.2696 3 39 11.7304 39 22.5Z" fill="url(#paint0_linear)"/>
<g filter="url(#filter0_d)">
<path d="M19 47V46.9883C18.8343 46.9961 18.6676 47 18.5 47C12.701 47 8 42.299 8 36.5C8 30.7682 12.5928 26.109 18.299 26.0019C19.4199 21.4089 23.5619 18 28.5 18C33.448 18 37.5967 21.4226 38.7077 26.0294C38.9692 26.0099 39.2335 26 39.5 26C45.299 26 50 30.701 50 36.5C50 42.1314 45.5668 46.7273 40 46.9883V47H19Z" fill="url(#paint1_linear)"/>
</g>
<defs>
<filter id="filter0_d" x="4" y="15" width="50" height="37" filterUnits="userSpaceOnUse" color-interpolation-filters="sRGB">
<feFlood flood-opacity="0" result="BackgroundImageFix"/>
<feColorMatrix in="SourceAlpha" type="matrix" values="0 0 0 0 0 0 0 0 0 0 0 0 0 0 0 0 0 0 127 0"/>
<feOffset dy="1"/>
<feGaussianBlur stdDeviation="2"/>
<feColorMatrix type="matrix" values="0 0 0 0 1 0 0 0 0 1 0 0 0 0 1 0 0 0 0.47 0"/>
<feBlend mode="normal" in2="BackgroundImageFix" result="effect1_dropShadow"/>
<feBlend mode="normal" in="SourceGraphic" in2="effect1_dropShadow" result="shape"/>
</filter>
<linearGradient id="paint0_linear" x1="19.5" y1="3" x2="19.5" y2="42" gradientUnits="userSpaceOnUse">
<stop stop-color="#FFCF52"/>
<stop offset="1" stop-color="#FFA800"/>
</linearGradient>
<linearGradient id="paint1_linear" x1="29" y1="18" x2="29" y2="47" gradientUnits="userSpaceOnUse">
<stop stop-color="white" stop-opacity="0.98"/>
<stop offset="0.96875" stop-color="#D0D0D0" stop-opacity="0.82"/>
</linearGradient>
</defs>
</svg>
