<svg width="52" height="51" viewBox="0 0 52 51" fill="none" xmlns="http://www.w3.org/2000/svg">
<g filter="url(#filter0_d)">
<path d="M15.5238 34V33.9875C15.3502 33.9958 15.1756 34 15 34C8.92488 34 4 28.9748 4 22.7759C4 16.6487 8.81148 11.6683 14.7894 11.5537C15.9637 6.64403 20.3029 3 25.4762 3C30.6598 3 35.006 6.65862 36.17 11.5832C36.444 11.5624 36.7208 11.5517 37 11.5517C43.0751 11.5517 48 16.577 48 22.7759C48 28.7956 43.3557 33.7085 37.5238 33.9875V34H15.5238Z" fill="url(#paint0_linear)"/>
</g>
<g filter="url(#filter1_d)">
<path fill-rule="evenodd" clip-rule="evenodd" d="M22.4424 36.2163C23.2622 36.3358 23.7523 37.0812 23.5372 37.8812L21.3582 45.9842C21.143 46.7842 20.3041 47.3358 19.4843 47.2163C18.6645 47.0969 18.1744 46.3515 18.3895 45.5515L20.5686 37.4485C20.7837 36.6485 21.6227 36.0969 22.4424 36.2163Z" fill="url(#paint1_linear)"/>
</g>
<g filter="url(#filter2_d)">
<path fill-rule="evenodd" clip-rule="evenodd" d="M29.4005 36.2163C30.2203 36.3358 30.7105 37.0812 30.4953 37.8812L28.3163 45.9842C28.1011 46.7842 27.2622 47.3358 26.4424 47.2163C25.6227 47.0969 25.1325 46.3515 25.3476 45.5515L27.5267 37.4485C27.7418 36.6485 28.5808 36.0969 29.4005 36.2163Z" fill="url(#paint2_linear)"/>
</g>
<defs>
<filter id="filter0_d" x="0" y="0" width="52" height="39" filterUnits="userSpaceOnUse" color-interpolation-filters="sRGB">
<feFlood flood-opacity="0" result="BackgroundImageFix"/>
<feColorMatrix in="SourceAlpha" type="matrix" values="0 0 0 0 0 0 0 0 0 0 0 0 0 0 0 0 0 0 127 0"/>
<feOffset dy="1"/>
<feGaussianBlur stdDeviation="2"/>
<feColorMatrix type="matrix" values="0 0 0 0 1 0 0 0 0 1 0 0 0 0 1 0 0 0 0.47 0"/>
<feBlend mode="normal" in2="BackgroundImageFix" result="effect1_dropShadow"/>
<feBlend mode="normal" in="SourceGraphic" in2="effect1_dropShadow" result="shape"/>
</filter>
<filter id="filter1_d" x="15.3389" y="33.2001" width="11.249" height="17.0325" filterUnits="userSpaceOnUse" color-interpolation-filters="sRGB">
<feFlood flood-opacity="0" result="BackgroundImageFix"/>
<feColorMatrix in="SourceAlpha" type="matrix" values="0 0 0 0 0 0 0 0 0 0 0 0 0 0 0 0 0 0 127 0"/>
<feOffset/>
<feGaussianBlur stdDeviation="1.5"/>
<feColorMatrix type="matrix" values="0 0 0 0 0.364706 0 0 0 0 0.65098 0 0 0 0 1 0 0 0 0.45 0"/>
<feBlend mode="normal" in2="BackgroundImageFix" result="effect1_dropShadow"/>
<feBlend mode="normal" in="SourceGraphic" in2="effect1_dropShadow" result="shape"/>
</filter>
<filter id="filter2_d" x="22.297" y="33.2001" width="11.249" height="17.0325" filterUnits="userSpaceOnUse" color-interpolation-filters="sRGB">
<feFlood flood-opacity="0" result="BackgroundImageFix"/>
<feColorMatrix in="SourceAlpha" type="matrix" values="0 0 0 0 0 0 0 0 0 0 0 0 0 0 0 0 0 0 127 0"/>
<feOffset/>
<feGaussianBlur stdDeviation="1.5"/>
<feColorMatrix type="matrix" values="0 0 0 0 0.364706 0 0 0 0 0.65098 0 0 0 0 1 0 0 0 0.45 0"/>
<feBlend mode="normal" in2="BackgroundImageFix" result="effect1_dropShadow"/>
<feBlend mode="normal" in="SourceGraphic" in2="effect1_dropShadow" result="shape"/>
</filter>
<linearGradient id="paint0_linear" x1="26" y1="3" x2="26" y2="34" gradientUnits="userSpaceOnUse">
<stop stop-color="#FCFCFC" stop-opacity="0.73"/>
<stop offset="0.96875" stop-color="#D7D7D7" stop-opacity="0.82"/>
</linearGradient>
<linearGradient id="paint1_linear" x1="21.9861" y1="36.3697" x2="20.2929" y2="47.086" gradientUnits="userSpaceOnUse">
<stop stop-color="#86B6FF"/>
<stop offset="1" stop-color="#4B9EFF"/>
</linearGradient>
<linearGradient id="paint2_linear" x1="28.9442" y1="36.3697" x2="27.251" y2="47.086" gradientUnits="userSpaceOnUse">
<stop stop-color="#86B6FF"/>
<stop offset="1" stop-color="#4B9EFF"/>
</linearGradient>
</defs>
</svg>
