<svg width="50" height="50" viewBox="0 0 50 50" fill="none" xmlns="http://www.w3.org/2000/svg">
<g filter="url(#filter0_d)">
<path d="M14.7381 34V33.9883C14.5764 33.9961 14.4136 34 14.25 34C8.58909 34 4 29.299 4 23.5C4 17.7682 8.48342 13.109 14.0538 13.0019C15.148 8.40894 19.1913 5 24.0119 5C28.8421 5 32.892 8.42258 33.9766 13.0294C34.2319 13.0099 34.4898 13 34.75 13C40.4109 13 45 17.701 45 23.5C45 29.1314 40.6724 33.7273 35.2381 33.9883V34H14.7381Z" fill="url(#paint0_linear)"/>
</g>
<g filter="url(#filter1_d)">
<path d="M23 40.5C23 41.8807 21.8807 43 20.5 43C19.1193 43 18 41.8807 18 40.5C18 39.1193 19.1193 38 20.5 38C21.8807 38 23 39.1193 23 40.5Z" fill="url(#paint1_linear)"/>
</g>
<g filter="url(#filter2_d)">
<path d="M32 40.5C32 41.8807 30.8807 43 29.5 43C28.1193 43 27 41.8807 27 40.5C27 39.1193 28.1193 38 29.5 38C30.8807 38 32 39.1193 32 40.5Z" fill="url(#paint2_linear)"/>
</g>
<defs>
<filter id="filter0_d" x="0" y="2" width="49" height="37" filterUnits="userSpaceOnUse" color-interpolation-filters="sRGB">
<feFlood flood-opacity="0" result="BackgroundImageFix"/>
<feColorMatrix in="SourceAlpha" type="matrix" values="0 0 0 0 0 0 0 0 0 0 0 0 0 0 0 0 0 0 127 0"/>
<feOffset dy="1"/>
<feGaussianBlur stdDeviation="2"/>
<feColorMatrix type="matrix" values="0 0 0 0 1 0 0 0 0 1 0 0 0 0 1 0 0 0 0.47 0"/>
<feBlend mode="normal" in2="BackgroundImageFix" result="effect1_dropShadow"/>
<feBlend mode="normal" in="SourceGraphic" in2="effect1_dropShadow" result="shape"/>
</filter>
<filter id="filter1_d" x="15" y="36" width="11" height="11" filterUnits="userSpaceOnUse" color-interpolation-filters="sRGB">
<feFlood flood-opacity="0" result="BackgroundImageFix"/>
<feColorMatrix in="SourceAlpha" type="matrix" values="0 0 0 0 0 0 0 0 0 0 0 0 0 0 0 0 0 0 127 0"/>
<feOffset dy="1"/>
<feGaussianBlur stdDeviation="1.5"/>
<feColorMatrix type="matrix" values="0 0 0 0 0.745098 0 0 0 0 0.894118 0 0 0 0 1 0 0 0 0.3 0"/>
<feBlend mode="normal" in2="BackgroundImageFix" result="effect1_dropShadow"/>
<feBlend mode="normal" in="SourceGraphic" in2="effect1_dropShadow" result="shape"/>
</filter>
<filter id="filter2_d" x="24" y="36" width="11" height="11" filterUnits="userSpaceOnUse" color-interpolation-filters="sRGB">
<feFlood flood-opacity="0" result="BackgroundImageFix"/>
<feColorMatrix in="SourceAlpha" type="matrix" values="0 0 0 0 0 0 0 0 0 0 0 0 0 0 0 0 0 0 127 0"/>
<feOffset dy="1"/>
<feGaussianBlur stdDeviation="1.5"/>
<feColorMatrix type="matrix" values="0 0 0 0 0.745098 0 0 0 0 0.894118 0 0 0 0 1 0 0 0 0.3 0"/>
<feBlend mode="normal" in2="BackgroundImageFix" result="effect1_dropShadow"/>
<feBlend mode="normal" in="SourceGraphic" in2="effect1_dropShadow" result="shape"/>
</filter>
<linearGradient id="paint0_linear" x1="24.5" y1="5" x2="24.5" y2="34" gradientUnits="userSpaceOnUse">
<stop stop-color="#FCFCFC" stop-opacity="0.73"/>
<stop offset="0.96875" stop-color="#D7D7D7" stop-opacity="0.82"/>
</linearGradient>
<linearGradient id="paint1_linear" x1="20.5" y1="38" x2="20.5" y2="43" gradientUnits="userSpaceOnUse">
<stop stop-color="#E8F5FF"/>
<stop offset="1" stop-color="#A0D7FF"/>
<stop offset="1" stop-color="#7CB1D7"/>
</linearGradient>
<linearGradient id="paint2_linear" x1="29.5" y1="38" x2="29.5" y2="43" gradientUnits="userSpaceOnUse">
<stop stop-color="#E8F5FF"/>
<stop offset="1" stop-color="#A0D7FF"/>
<stop offset="1" stop-color="#7CB1D7"/>
</linearGradient>
</defs>
</svg>
