<svg width="50" height="50" viewBox="0 0 50 50" fill="none" xmlns="http://www.w3.org/2000/svg">
<g filter="url(#filter0_d)">
<path d="M14.7381 32V31.9883C14.5764 31.9961 14.4136 32 14.25 32C8.58909 32 4 27.299 4 21.5C4 15.7682 8.48342 11.109 14.0538 11.0019C15.148 6.40894 19.1913 3 24.0119 3C28.8421 3 32.892 6.42258 33.9766 11.0294C34.2319 11.0099 34.4898 11 34.75 11C40.4109 11 45 15.701 45 21.5C45 27.1314 40.6724 31.7273 35.2381 31.9883V32H14.7381Z" fill="url(#paint0_linear)"/>
</g>
<g filter="url(#filter1_d)">
<path fill-rule="evenodd" clip-rule="evenodd" d="M20.9654 32H27.0749L25.765 38H28.7292C29.1095 38 29.3506 38.4077 29.1673 38.741L24.8504 46.59C24.6138 47.0202 23.9636 46.8873 23.9148 46.3988L23.3589 40.8406C22.3759 40.8391 21.2961 40.8381 21 40.84C20.4218 40.8438 20 40.5 20 40L20.9654 32Z" fill="url(#paint1_linear)"/>
</g>
<defs>
<filter id="filter0_d" x="0" y="0" width="49" height="37" filterUnits="userSpaceOnUse" color-interpolation-filters="sRGB">
<feFlood flood-opacity="0" result="BackgroundImageFix"/>
<feColorMatrix in="SourceAlpha" type="matrix" values="0 0 0 0 0 0 0 0 0 0 0 0 0 0 0 0 0 0 127 0"/>
<feOffset dy="1"/>
<feGaussianBlur stdDeviation="2"/>
<feColorMatrix type="matrix" values="0 0 0 0 1 0 0 0 0 1 0 0 0 0 1 0 0 0 0.47 0"/>
<feBlend mode="normal" in2="BackgroundImageFix" result="effect1_dropShadow"/>
<feBlend mode="normal" in="SourceGraphic" in2="effect1_dropShadow" result="shape"/>
</filter>
<filter id="filter1_d" x="19" y="32" width="11.23" height="16.8495" filterUnits="userSpaceOnUse" color-interpolation-filters="sRGB">
<feFlood flood-opacity="0" result="BackgroundImageFix"/>
<feColorMatrix in="SourceAlpha" type="matrix" values="0 0 0 0 0 0 0 0 0 0 0 0 0 0 0 0 0 0 127 0"/>
<feOffset dy="1"/>
<feGaussianBlur stdDeviation="0.5"/>
<feColorMatrix type="matrix" values="0 0 0 0 1 0 0 0 0 0.690196 0 0 0 0 0.0745098 0 0 0 0.24 0"/>
<feBlend mode="normal" in2="BackgroundImageFix" result="effect1_dropShadow"/>
<feBlend mode="normal" in="SourceGraphic" in2="effect1_dropShadow" result="shape"/>
</filter>
<linearGradient id="paint0_linear" x1="24.5" y1="3" x2="24.5" y2="32" gradientUnits="userSpaceOnUse">
<stop stop-color="#FCFCFC" stop-opacity="0.73"/>
<stop offset="0.96875" stop-color="#D7D7D7" stop-opacity="0.82"/>
</linearGradient>
<linearGradient id="paint1_linear" x1="24.7317" y1="32" x2="24.7317" y2="47.2431" gradientUnits="userSpaceOnUse">
<stop stop-color="#FCEABD"/>
<stop offset="0.0001" stop-color="#FFD976"/>
<stop offset="1" stop-color="#FFA800"/>
</linearGradient>
</defs>
</svg>
