<svg width="960" height="960" viewBox="0 0 960 960" fill="none" xmlns="http://www.w3.org/2000/svg">
<rect width="960" height="960" fill="url(#paint0_linear)"/>
<path fill-rule="evenodd" clip-rule="evenodd" d="M915.175 1.8677C915.175 2.89921 914.339 3.73541 913.307 3.73541C912.276 3.73541 911.44 2.89921 911.44 1.8677C911.44 0.8362 912.276 0 913.307 0C914.339 0 915.175 0.8362 915.175 1.8677ZM33.6187 59.7666C35.6817 59.7666 37.3541 58.0942 37.3541 56.0311C37.3541 53.9681 35.6817 52.2957 33.6187 52.2957C31.5557 52.2957 29.8833 53.9681 29.8833 56.0311C29.8833 58.0942 31.5557 59.7666 33.6187 59.7666ZM74.7082 112.062C76.7712 112.062 78.4436 110.39 78.4436 108.327C78.4436 106.264 76.7712 104.591 74.7082 104.591C72.6452 104.591 70.9728 106.264 70.9728 108.327C70.9728 110.39 72.6452 112.062 74.7082 112.062ZM332.451 89.6498C332.451 91.7128 330.779 93.3852 328.716 93.3852C326.653 93.3852 324.981 91.7128 324.981 89.6498C324.981 87.5868 326.653 85.9144 328.716 85.9144C330.779 85.9144 332.451 87.5868 332.451 89.6498ZM186.77 134.475C190.896 134.475 194.241 131.13 194.241 127.004C194.241 122.878 190.896 119.533 186.77 119.533C182.644 119.533 179.3 122.878 179.3 127.004C179.3 131.13 182.644 134.475 186.77 134.475ZM422.101 160.623C422.101 162.686 420.429 164.358 418.366 164.358C416.303 164.358 414.63 162.686 414.63 160.623C414.63 158.56 416.303 156.887 418.366 156.887C420.429 156.887 422.101 158.56 422.101 160.623ZM235.331 209.183C239.457 209.183 242.802 205.838 242.802 201.712C242.802 197.586 239.457 194.241 235.331 194.241C231.205 194.241 227.86 197.586 227.86 201.712C227.86 205.838 231.205 209.183 235.331 209.183ZM612.607 97.1206C612.607 99.1836 610.935 100.856 608.872 100.856C606.809 100.856 605.136 99.1836 605.136 97.1206C605.136 95.0576 606.809 93.3852 608.872 93.3852C610.935 93.3852 612.607 95.0576 612.607 97.1206ZM625.681 164.358C628.775 164.358 631.284 161.849 631.284 158.755C631.284 155.66 628.775 153.152 625.681 153.152C622.586 153.152 620.078 155.66 620.078 158.755C620.078 161.849 622.586 164.358 625.681 164.358ZM832.996 130.739C832.996 132.802 831.324 134.475 829.261 134.475C827.198 134.475 825.525 132.802 825.525 130.739C825.525 128.676 827.198 127.004 829.261 127.004C831.324 127.004 832.996 128.676 832.996 130.739ZM825.525 224.125C827.588 224.125 829.261 222.452 829.261 220.389C829.261 218.326 827.588 216.654 825.525 216.654C823.462 216.654 821.79 218.326 821.79 220.389C821.79 222.452 823.462 224.125 825.525 224.125ZM336.187 315.642C336.187 316.673 335.351 317.51 334.319 317.51C333.288 317.51 332.451 316.673 332.451 315.642C332.451 314.611 333.288 313.774 334.319 313.774C335.351 313.774 336.187 314.611 336.187 315.642ZM851.673 444.514C853.736 444.514 855.409 442.841 855.409 440.778C855.409 438.715 853.736 437.043 851.673 437.043C849.61 437.043 847.938 438.715 847.938 440.778C847.938 442.841 849.61 444.514 851.673 444.514ZM705.992 261.479C708.055 261.479 709.728 259.806 709.728 257.743C709.728 255.68 708.055 254.008 705.992 254.008C703.929 254.008 702.257 255.68 702.257 257.743C702.257 259.806 703.929 261.479 705.992 261.479ZM220.389 354.864C220.389 356.927 218.717 358.599 216.654 358.599C214.591 358.599 212.918 356.927 212.918 354.864C212.918 352.801 214.591 351.128 216.654 351.128C218.717 351.128 220.389 352.801 220.389 354.864ZM732.14 481.868C734.203 481.868 735.875 480.195 735.875 478.132C735.875 476.069 734.203 474.397 732.14 474.397C730.077 474.397 728.405 476.069 728.405 478.132C728.405 480.195 730.077 481.868 732.14 481.868ZM799.377 41.0895C799.377 43.1525 797.705 44.8249 795.642 44.8249C793.579 44.8249 791.907 43.1525 791.907 41.0895C791.907 39.0265 793.579 37.3541 795.642 37.3541C797.705 37.3541 799.377 39.0265 799.377 41.0895ZM506.148 283.891C507.179 283.891 508.016 283.055 508.016 282.023C508.016 280.992 507.179 280.156 506.148 280.156C505.116 280.156 504.28 280.992 504.28 282.023C504.28 283.055 505.116 283.891 506.148 283.891ZM29.8833 384.747C29.8833 388.873 26.5385 392.218 22.4124 392.218C18.2864 392.218 14.9416 388.873 14.9416 384.747C14.9416 380.621 18.2864 377.276 22.4124 377.276C26.5385 377.276 29.8833 380.621 29.8833 384.747ZM534.163 508.016C536.226 508.016 537.899 506.343 537.899 504.28C537.899 502.217 536.226 500.545 534.163 500.545C532.1 500.545 530.428 502.217 530.428 504.28C530.428 506.343 532.1 508.016 534.163 508.016ZM597.665 65.3697C597.665 66.4012 596.829 67.2374 595.798 67.2374C594.766 67.2374 593.93 66.4012 593.93 65.3697C593.93 64.3381 594.766 63.5019 595.798 63.5019C596.829 63.5019 597.665 64.3381 597.665 65.3697ZM864.747 347.393C867.842 347.393 870.35 344.884 870.35 341.79C870.35 338.695 867.842 336.187 864.747 336.187C861.653 336.187 859.144 338.695 859.144 341.79C859.144 344.884 861.653 347.393 864.747 347.393ZM381.012 438.911C381.012 442.005 378.503 444.514 375.409 444.514C372.314 444.514 369.805 442.005 369.805 438.911C369.805 435.816 372.314 433.307 375.409 433.307C378.503 433.307 381.012 435.816 381.012 438.911ZM887.16 560.311C888.191 560.311 889.027 559.475 889.027 558.444C889.027 557.412 888.191 556.576 887.16 556.576C886.128 556.576 885.292 557.412 885.292 558.444C885.292 559.475 886.128 560.311 887.16 560.311ZM960 125.136C960 128.231 957.491 130.739 954.397 130.739C951.302 130.739 948.794 128.231 948.794 125.136C948.794 122.042 951.302 119.533 954.397 119.533C957.491 119.533 960 122.042 960 125.136ZM494.942 362.335C498.036 362.335 500.545 359.826 500.545 356.732C500.545 353.637 498.036 351.128 494.942 351.128C491.847 351.128 489.339 353.637 489.339 356.732C489.339 359.826 491.847 362.335 494.942 362.335ZM7.47082 451.984C7.47082 454.047 5.79842 455.72 3.73541 455.72C1.6724 455.72 0 454.047 0 451.984C0 449.921 1.6724 448.249 3.73541 448.249C5.79842 448.249 7.47082 449.921 7.47082 451.984ZM517.354 575.253C518.386 575.253 519.222 574.417 519.222 573.385C519.222 572.354 518.386 571.517 517.354 571.517C516.323 571.517 515.486 572.354 515.486 573.385C515.486 574.417 516.323 575.253 517.354 575.253ZM239.066 532.296C239.066 533.327 238.23 534.164 237.198 534.164C236.167 534.164 235.331 533.327 235.331 532.296C235.331 531.264 236.167 530.428 237.198 530.428C238.23 530.428 239.066 531.264 239.066 532.296ZM582.724 141.946C584.787 141.946 586.459 140.273 586.459 138.21C586.459 136.147 584.787 134.475 582.724 134.475C580.661 134.475 578.988 136.147 578.988 138.21C578.988 140.273 580.661 141.946 582.724 141.946Z" fill="white" fill-opacity="0.56"/>
<defs>
<linearGradient id="paint0_linear" x1="480" y1="137.6" x2="480" y2="960" gradientUnits="userSpaceOnUse">
<stop stop-color="#142A53"/>
<stop offset="1" stop-color="#00243F"/>
</linearGradient>
</defs>
</svg>
